<?xml version="1.0" standalone="no"?>
<!DOCTYPE svg PUBLIC "-//W3C//DTD SVG 20010904//EN"
 "http://www.w3.org/TR/2001/REC-SVG-20010904/DTD/svg10.dtd">
<svg version="1.0" xmlns="http://www.w3.org/2000/svg"
 width="700.000000pt" height="700.000000pt" viewBox="0 0 700.000000 700.000000"
 preserveAspectRatio="xMidYMid meet">
<metadata>
Created by potrace 1.14, written by Peter Selinger 2001-2017
</metadata>
<g transform="translate(0.000000,700.000000) scale(0.100000,-0.100000)"
fill="#000000" stroke="none">
<path d="M3130 6783 c-43 -14 -62 -30 -81 -71 -21 -41 -21 -53 -15 -176 4 -72
8 -146 9 -165 l2 -33 -147 -33 c-746 -167 -1385 -521 -1807 -999 -226 -257
-378 -478 -511 -746 -108 -216 -190 -460 -190 -567 l0 -44 163 6 c144 6 171 4
240 -14 132 -35 208 -80 410 -245 38 -31 77 -56 88 -56 10 0 67 18 126 40 177
67 243 81 398 87 237 9 375 -28 674 -180 153 -77 200 -97 220 -92 14 4 89 35
166 70 77 35 187 79 245 98 114 38 285 75 296 65 5 -6 123 -935 124 -979 0
-14 -28 -17 -217 -22 -398 -13 -824 -58 -1233 -133 -640 -117 -1151 -354
-1418 -657 -128 -145 -182 -269 -182 -414 1 -244 122 -458 363 -638 l38 -28
-19 34 c-11 19 -23 48 -27 66 -22 108 96 232 276 288 l57 18 -29 46 c-75 118
-62 247 31 321 125 99 332 130 870 130 344 0 576 11 671 31 145 30 235 102
381 304 106 147 179 229 261 290 64 49 195 120 204 111 3 -2 13 -74 24 -158
78 -642 75 -621 110 -690 24 -48 68 -70 134 -69 95 1 139 34 157 122 11 55 -3
215 -64 721 -12 98 -19 180 -16 184 16 15 263 46 418 52 l175 7 -230 23 c-126
12 -265 25 -307 28 -54 5 -78 11 -78 20 0 7 -25 227 -55 489 -30 263 -55 488
-55 502 0 24 1 24 63 18 131 -13 217 -26 354 -51 121 -23 145 -25 159 -13 9 7
48 56 87 109 156 211 312 323 547 393 204 61 382 79 520 52 47 -10 102 -19
122 -22 42 -6 30 -19 123 144 60 107 164 215 250 259 142 74 311 116 480 118
l120 1 -1 37 c-1 47 -49 148 -127 267 -274 417 -797 822 -1392 1076 -301 128
-674 219 -1050 256 -139 13 -605 17 -667 5 l-36 -7 -7 78 c-10 118 -32 231
-53 266 -32 57 -93 87 -142 70z m353 -558 c424 -88 848 -293 1217 -589 243
-195 553 -570 743 -901 68 -119 157 -308 164 -349 l6 -36 -194 6 c-128 5 -224
3 -282 -5 -252 -34 -471 -140 -685 -332 -48 -43 -92 -79 -99 -79 -13 0 -27 43
-128 405 -83 295 -186 599 -266 788 -155 365 -371 698 -598 921 l-80 79 19 25
c11 13 22 39 26 58 8 41 5 41 157 9z m-370 -169 c-100 -135 -211 -407 -278
-679 -83 -336 -120 -663 -150 -1317 -16 -338 -19 -370 -36 -370 -5 0 -69 30
-142 66 -255 128 -382 164 -581 164 -128 0 -191 -9 -372 -52 -72 -17 -139 -28
-148 -25 -33 13 -16 214 34 412 87 337 288 742 526 1060 263 351 598 636 979
830 l127 65 43 -46 43 -46 -45 -62z"/>
<path d="M2591 1677 c-25 -12 -81 -56 -126 -99 l-81 -76 -244 -4 c-222 -3
-249 -5 -290 -24 -56 -26 -74 -47 -66 -77 11 -47 70 -96 180 -151 l109 -55
-70 -73 c-90 -93 -123 -142 -123 -184 0 -46 22 -64 78 -64 60 0 217 38 365 89
l117 39 42 -32 c156 -118 315 -206 373 -206 56 0 68 39 63 212 l-3 138 40 11
c179 46 312 113 335 169 31 75 -56 115 -355 160 -71 11 -133 20 -137 20 -5 0
-8 9 -8 20 0 40 -44 152 -71 181 -33 35 -67 37 -128 6z"/>
</g>
</svg>
